<svg xmlns="http://www.w3.org/2000/svg" viewBox="0 0 140 54" fill="none"><path fill="#fff" d="M8.8781 22.5308H0c.0661-2.4941 1.554-3.9839 4.0836-4.0843a52.1959 52.1959 0 0 1 4.5796 0c.9424.0502 1.3557-.2678 1.5872-1.2387.8101-3.4817 1.6698-6.9634 2.6452-10.3949.6613-2.3602 2.2485-4.0173 4.4143-5.122C19.9882.3014 22.7988-.2677 25.7747.268c4.1167.7365 6.4478 3.2808 5.2574 7.7669-1.9343 7.3484-3.6703 14.747-5.4723 22.1289-.248 1.0043-.5787 2.0756.8762 2.6112-.2645 1.0546-.5125 2.0924-.8101 3.2809-1.4549-.1172-2.9098-.1339-4.2986-.385-1.8516-.3515-2.8601-2.377-2.3311-4.553.6613-2.7954 1.3722-5.5573 2.1162-8.5871-1.9178 0-3.7033-.0502-5.4723.0502-.2646.0168-.6118.6863-.7275 1.1048-.9424 3.6993-1.8517 7.4153-2.761 11.1314-.0826.3515-.1984.7198-.3141 1.1048H5.6377c1.0581-4.4359 2.1327-8.788 3.2404-13.3912Zm7.2745-4.0508c1.7855 0 3.3727-.0335 4.9764.0167.7274.0168 1.0085-.2511 1.1738-.9206.744-3.0633 1.5375-6.1265 2.265-9.1897.2314-.9709.4794-1.9585.5125-2.9293.0331-1.5902-1.1573-2.5109-2.7114-2.1928-1.5706.318-2.5791 1.3223-3.009 2.7954-.6778 2.31-1.2234 4.6534-1.8186 6.9801-.4629 1.7409-.8927 3.4985-1.3887 5.4402ZM45.8955 11.1818h17.128a4193.486 4193.486 0 0 1-1.9343 7.6999c-.9258 3.6658-1.8682 7.3316-2.794 10.9975-.2811 1.1382-.248 2.1426.9919 2.7452.1984.1004.3637.5524.3142.8034-.1654.8537-.4299 1.6739-.7275 2.7787-1.6037-.3348-3.1743-.4687-4.6292-.9876-2.1989-.77-3.1247-2.7117-2.546-5.0049 1.2069-4.8041 2.4468-9.6082 3.6537-14.3955.0992-.4018.1653-.8035.2811-1.3224h-4.3151c-.6944 2.8791-1.3722 5.7917-2.0831 8.6875-1.5541 6.2436-5.2575 10.6125-11.4242 12.2529-2.8767.77-6.0345.5189-9.2915.7365 2.0501-8.5703 4.034-16.8394 6.0014-25.1419h6.3487c-1.7525 7.2145-3.4885 14.362-5.274 21.7104 2.1493-.0669 3.7199-1.021 4.9268-2.5275.6282-.77 1.0911-1.7911 1.3391-2.762 1.2896-5.0384 2.4965-10.1103 3.7199-15.1655.0992-.3849.2149-.7699.3141-1.1047ZM86.7474 11.1986c-1.3887 5.8252-2.794 11.734-4.1993 17.6261-.0992.452-.248.8872-.3472 1.3224-.2811 1.2052-.3307 2.2932 1.3557 2.6782-.248 1.0713-.4795 2.0589-.744 3.1469-2.4138-.0167-4.8606.2846-6.7123-2.0086-2.0832 1.7241-4.5135 2.243-7.1587 1.9417-3.009-.3348-5.4063-2.1426-5.6543-4.5363-.1322-1.2386.1654-2.561.4299-3.8164.6448-2.9294 1.3888-5.8252 2.0997-8.7378 1.025-4.1847 4.067-7.2145 8.316-7.5492 4.1497-.3181 8.3325-.067 12.6145-.067Zm-6.9272 3.013h-3.7695c-2.1658 0-2.9759.4854-3.505 2.5611-1.1077 4.3856-2.1492 8.8047-3.1412 13.2237-.4133 1.8748.8762 3.0465 2.761 2.7118 2.0004-.3683 3.4388-1.54 3.9513-3.4817 1.3061-4.9213 2.4469-9.8593 3.7034-15.0149ZM112.341 10.9976c1.852.0168 3.604.3181 5.125 1.5066 1.587 1.2219 2.348 2.8456 1.901 4.8208-.892 4.0675-1.785 8.1351-2.926 12.119-1.042 3.6491-5.076 6.2771-9.44 6.4947-2.133.1171-4.2-.0502-6.035-1.3559-1.7191-1.2219-2.5127-2.8958-2.0498-4.9714.8762-3.9002 1.7688-7.8004 2.8268-11.6503 1.24-4.3522 5.423-7.0137 10.598-6.9635Zm.909 5.9256c-.066-1.021-.132-2.0086-1.19-2.4606-1.158-.4854-2.116.067-2.827.9541-.48.6026-.893 1.3391-1.091 2.0757a284.3014 284.3014 0 0 0-2.282 9.1896c-.298 1.2889-.645 2.6113-.678 3.917-.033 1.8915 1.67 2.7451 3.141 1.6069.711-.5524 1.356-1.3726 1.687-2.2263.578-1.54.926-3.1971 1.306-4.8041.678-2.7284 1.306-5.4903 1.934-8.2523ZM91.9394 13.7596h-3.0255c.0496-.318.0496-.4854.0827-.6361.529-2.3099.529-2.3434 2.8436-2.3936.7605-.0168 1.0085-.385 1.1573-1.0044.3637-1.54.7274-3.08 1.1242-4.7371h6.2333c-.4798 1.925-.9262 3.716-1.4222 5.6745h2.7112c-.264 1.0546-.38 1.9417-.744 2.7452-.116.2678-.86.3683-1.2894.3348-1.0415-.0837-1.5044.2678-1.7524 1.3558-1.0747 4.62-2.2816 9.2232-3.4223 13.8264-.4134 1.6404-.1654 2.1593 1.4053 2.9963-.2315.9541-.4795 1.9417-.7771 3.1804-1.4879-.1674-2.9924-.1507-4.3812-.5524-2.3146-.6696-3.1743-2.9293-2.4469-5.8586l3.224-12.956c.1487-.5691.281-1.1382.4794-1.9752ZM118.871 34.767c.876-3.4817 1.703-6.8295 2.563-10.1773 1.107-4.3521 2.248-8.6875 3.323-13.0564.198-.8369.512-1.155 1.389-1.1215 1.719.067 3.438.0167 5.24.0167-.082.6529-.165 1.1718-.264 1.9585 2.794-1.8748 5.72-2.1426 8.878-1.8748-.512 2.0087-.975 3.9672-1.521 5.9089-.066.2343-.529.4854-.827.5022-.859.0669-1.719.0167-2.744.0167.231-1.0378.446-1.9752.744-3.3143-1.091.6361-1.951 1.0545-2.728 1.6069-3.059 2.2096-4.199 5.5239-5.009 9.039-.744 3.2307-1.604 6.4445-2.464 9.6584-.083.3181-.446.77-.694.7867-1.918.0837-3.836.0503-5.886.0503ZM70.1652 43.0695c6.0675 0 12.1185.0168 18.1861 0 1.1408 0 2.0501.2678 2.3476 1.54.2646 1.088-.3967 2.1426-1.4714 2.3602-.3141.067-.6613.0502-.9919.0502-12.1186 0-24.2537.0167-36.3723-.0335-.7109 0-1.6367-.2678-2.0666-.77-.3802-.4352-.4464-1.5065-.1818-2.0421.2645-.5189 1.1242-1.0043 1.7359-1.0378 2.0501-.1339 4.1167-.0502 6.1833-.0502 4.2159-.0168 8.4317-.0168 12.6311-.0168ZM70.0495 50.0831h11.3746c1.5871 0 2.4468.7366 2.4138 2.0255-.0331 1.2219-.8763 1.8915-2.4138 1.8915H58.6584c-1.1408 0-2.0501-.2846-2.3477-1.5568-.3141-1.3223.5787-2.3602 2.0997-2.3769 3.8852.0167 7.7704.0167 11.6391.0167ZM58.4103 3.8C58.3937 1.8246 60.1958.0336 62.2459.0001c1.4549-.0168 2.7279 1.1884 2.761 2.628.0661 1.9752-1.8517 3.9169-3.8852 3.9336-1.5872.0168-2.7114-1.1215-2.7114-2.7619Z"/></svg>