<svg width="53" height="52" viewBox="0 0 53 52" fill="none" xmlns="http://www.w3.org/2000/svg">
<path d="M26.1566 29.8235C34.181 29.8235 40.686 23.3184 40.686 15.2941C40.686 7.26969 34.181 0.764648 26.1566 0.764648C18.1322 0.764648 11.6272 7.26969 11.6272 15.2941C11.6272 23.3184 18.1322 29.8235 26.1566 29.8235Z" stroke="#E73843" stroke-width="1.52941"/>
<path d="M26.1571 7.76636L27.7325 12.6149L27.847 12.9672H28.2173H33.3155L29.1911 15.9637L28.8914 16.1815L29.0058 16.5338L30.5812 21.3823L26.4568 18.3857L26.1571 18.168L25.8575 18.3857L21.733 21.3823L23.3084 16.5338L23.4228 16.1815L23.1233 15.9637L18.9988 12.9672H24.0969H24.4673L24.5817 12.6149L26.1571 7.76636Z" stroke="#E73843" stroke-width="1.01961"/>
<path d="M17.9995 27.5294V50.9546L24.6429 43.6352C25.4528 42.7429 26.8557 42.7438 27.6646 43.6371L34.3132 50.9805V27.5294" stroke="#E73843" stroke-width="1.52941" stroke-linecap="round" stroke-linejoin="round"/>
</svg>
