<svg width="53" height="52" viewBox="0 0 53 52" fill="none" xmlns="http://www.w3.org/2000/svg">
<path d="M13.1516 7.99998C13.1516 7.22678 13.7784 6.59998 14.5516 6.59998H37.5516C38.3248 6.59998 38.9516 7.22678 38.9516 7.99998V13C38.9516 13.7732 38.3248 14.4 37.5516 14.4H14.5516C13.7784 14.4 13.1516 13.7732 13.1516 13V7.99998Z" stroke="#E73843" stroke-width="1.2"/>
<path d="M12.756 18.0432H39.3469C39.4725 18.0432 39.5742 17.9415 39.5742 17.8159C39.5742 17.6904 39.4725 17.5887 39.3469 17.5887H12.756C12.6305 17.5887 12.5287 17.6904 12.5287 17.8159C12.5287 17.9415 12.6305 18.0432 12.756 18.0432Z" stroke="#E73843" stroke-width="0.45455"/>
<path d="M12.756 20.7708H39.3469C39.4725 20.7708 39.5742 20.669 39.5742 20.5435C39.5742 20.418 39.4725 20.3162 39.3469 20.3162H12.756C12.6305 20.3162 12.5287 20.418 12.5287 20.5435C12.5287 20.669 12.6305 20.7708 12.756 20.7708Z" stroke="#E73843" stroke-width="0.45455"/>
<path d="M12.756 23.4993H39.3469C39.4725 23.4993 39.5742 23.3975 39.5742 23.272C39.5742 23.1465 39.4725 23.0447 39.3469 23.0447H12.756C12.6305 23.0447 12.5287 23.1465 12.5287 23.272C12.5287 23.3975 12.6305 23.4993 12.756 23.4993Z" stroke="#E73843" stroke-width="0.45455"/>
<path d="M12.756 26.2268H39.3469C39.4725 26.2268 39.5742 26.1251 39.5742 25.9995C39.5742 25.874 39.4725 25.7723 39.3469 25.7723H12.756C12.6305 25.7723 12.5287 25.874 12.5287 25.9995C12.5287 26.1251 12.6305 26.2268 12.756 26.2268Z" stroke="#E73843" stroke-width="0.45455"/>
<path d="M30.1727 28.9534H39.3469C39.4725 28.9534 39.5742 28.8516 39.5742 28.7261C39.5742 28.6006 39.4725 28.4988 39.3469 28.4988H30.1727C30.0472 28.4988 29.9454 28.6006 29.9454 28.7261C29.9454 28.8516 30.0472 28.9534 30.1727 28.9534Z" stroke="#E73843" stroke-width="0.454551"/>
<path d="M12.7562 28.9534H21.9304C22.056 28.9534 22.1577 28.8516 22.1577 28.7261C22.1577 28.6006 22.056 28.4988 21.9304 28.4988H12.7562C12.6307 28.4988 12.5289 28.6006 12.5289 28.7261C12.5289 28.8516 12.6307 28.9534 12.7562 28.9534Z" stroke="#E73843" stroke-width="0.454551"/>
<path d="M24.2185 40.3912L25.576 41.8581" stroke="#E73843" stroke-width="1.5" stroke-linecap="round"/>
<path d="M28.5998 38.2734L25.5754 41.8586" stroke="#E73843" stroke-width="1.5" stroke-linecap="round"/>
<path d="M23.3015 46.9092V51.0001" stroke="#E73843" stroke-width="1.5" stroke-linecap="round"/>
<path d="M28.8015 47.3633V50.9997" stroke="#E73843" stroke-width="1.5" stroke-linecap="round"/>
<path d="M33.694 39.8347C33.6958 39.7687 33.6964 39.7028 33.6964 39.6368C33.6964 35.3689 30.2606 31.9094 26.022 31.9094C21.7833 31.9094 18.3476 35.3689 18.3476 39.6368C18.3476 39.7028 18.3482 39.7693 18.3499 39.8347M31.6178 44.9241C31.6261 44.9152 31.6343 44.9063 31.6426 44.8973M31.7394 44.7903C31.7489 44.7802 31.7577 44.7695 31.7672 44.7588M31.8581 44.6536C31.8681 44.6417 31.8782 44.6298 31.8882 44.618M31.9738 44.5139C31.9844 44.5009 31.995 44.4878 32.0057 44.4741M32.0865 44.3713C32.0978 44.3564 32.109 44.3416 32.1202 44.3273M32.1958 44.2257C32.2076 44.2096 32.2194 44.193 32.2312 44.1769M32.302 44.077C32.3144 44.0598 32.3262 44.042 32.338 44.0241M32.4047 43.9261C32.4171 43.907 32.4295 43.8886 32.4419 43.8696M32.5045 43.7721C32.5169 43.7519 32.5293 43.7317 32.5417 43.7121M32.6007 43.6158C32.6137 43.5944 32.6261 43.573 32.6385 43.5516M32.6934 43.4571C32.7064 43.4345 32.7188 43.4119 32.7312 43.3893M32.7826 43.2954C32.795 43.2716 32.8073 43.2478 32.8197 43.2247M32.8676 43.1313C32.88 43.107 32.8918 43.082 32.9042 43.057M32.949 42.9649C32.9614 42.9393 32.9732 42.9132 32.985 42.8876M33.027 42.7961C33.0388 42.7693 33.05 42.7426 33.0618 42.7164M33.1007 42.6255C33.112 42.5982 33.1232 42.5702 33.1344 42.5423M33.1704 42.4525C33.1816 42.424 33.1923 42.3955 33.2029 42.3669M33.2359 42.2772C33.2466 42.248 33.2566 42.2183 33.2666 42.1892M33.2973 42.1C33.3074 42.0697 33.3168 42.0394 33.3268 42.0091M33.3546 41.9205C33.364 41.8896 33.3729 41.8581 33.3823 41.8272M33.4077 41.7392C33.4166 41.7077 33.4248 41.6756 33.4337 41.6435M33.4567 41.5561C33.465 41.524 33.4727 41.4914 33.4803 41.4587M33.501 41.3713C33.5087 41.3386 33.5152 41.3053 33.5223 41.2726M33.5411 41.1846C33.5476 41.1513 33.5541 41.1175 33.56 41.0842M33.5766 40.9962C33.5825 40.9617 33.5878 40.9273 33.5937 40.8934M33.6079 40.8066C33.6132 40.7715 33.6179 40.7364 33.6226 40.702M33.6344 40.6152C33.6391 40.5795 33.6427 40.5433 33.6468 40.5076M33.6563 40.4226C33.6598 40.3852 33.6628 40.3471 33.6663 40.3091M33.6734 40.2282C33.6763 40.1884 33.6787 40.1492 33.6811 40.1093M33.6858 40.0327C33.6881 39.9887 33.6893 39.9441 33.6905 39.8995M20.425 44.9247C20.4167 44.9158 20.4084 44.9068 20.4002 44.8979M20.3034 44.7909C20.2939 44.7808 20.2851 44.7701 20.2756 44.7594M20.1847 44.6542C20.1747 44.6423 20.1646 44.6304 20.1546 44.6186M20.069 44.5145C20.0584 44.5015 20.0477 44.4884 20.0371 44.4747M19.9562 44.3719C19.945 44.357 19.9338 44.3422 19.9226 44.3279M19.847 44.2262C19.8352 44.2102 19.8234 44.1936 19.8116 44.1775M19.7408 44.0776C19.7284 44.0604 19.7166 44.0426 19.7048 44.0247M19.638 43.9267C19.6257 43.9076 19.6133 43.8892 19.6009 43.8702M19.5383 43.7727C19.5259 43.7525 19.5135 43.7323 19.5011 43.7127M19.4421 43.6164C19.4291 43.595 19.4167 43.5736 19.4043 43.5522M19.3494 43.4577C19.3364 43.4351 19.324 43.4125 19.3116 43.3899M19.2602 43.296C19.2478 43.2722 19.2354 43.2484 19.223 43.2253M19.1752 43.1319C19.1628 43.1076 19.151 43.0826 19.1386 43.0576M19.0938 42.9655C19.0814 42.9399 19.0696 42.9138 19.0577 42.8882M19.0158 42.7967C19.004 42.7699 18.9928 42.7432 18.981 42.717M18.942 42.6261C18.9308 42.5987 18.9196 42.5708 18.9084 42.5429M18.8724 42.4531C18.8612 42.4246 18.8505 42.396 18.8399 42.3675M18.8068 42.2778C18.7962 42.2486 18.7862 42.2189 18.7762 42.1898M18.7455 42.1006C18.7354 42.0703 18.726 42.04 18.7159 42.0097M18.6882 41.9211C18.6787 41.8902 18.6699 41.8587 18.6604 41.8278M18.6351 41.7398C18.6262 41.7083 18.6179 41.6762 18.6091 41.6441M18.5861 41.5567C18.5778 41.5246 18.5701 41.4919 18.5624 41.4593M18.5418 41.3719C18.5341 41.3392 18.5276 41.3059 18.5205 41.2732M18.5017 41.1852C18.4952 41.1519 18.4887 41.1181 18.4828 41.0848M18.4662 40.9968C18.4603 40.9623 18.455 40.9279 18.4491 40.894M18.4349 40.8072C18.4296 40.7721 18.4249 40.737 18.4202 40.7026M18.4084 40.6158C18.4037 40.5801 18.4001 40.5439 18.396 40.5082M18.3865 40.4232C18.383 40.3857 18.3795 40.3477 18.3765 40.3097M18.3694 40.2288C18.3665 40.1896 18.3641 40.1498 18.3617 40.1099M18.357 40.0333C18.3547 39.9893 18.3535 39.9447 18.3523 39.9001M40.1901 1H11.9129C10.6088 1 9.55151 2.06459 9.55151 3.37765V42.6683C9.55151 43.9813 10.6088 45.0459 11.9129 45.0459H20.5419C20.5377 45.0418 20.5336 45.037 20.5295 45.0329C21.9233 46.4707 23.869 47.3641 26.022 47.3641C28.175 47.3641 30.1207 46.4707 31.5145 45.0329C31.5104 45.037 31.5062 45.0418 31.5021 45.0459H40.1901C41.4942 45.0459 42.5515 43.9813 42.5515 42.6683V3.37765C42.5515 2.06459 41.4942 1 40.1901 1Z" stroke="#E73843" stroke-width="1.5" stroke-linejoin="round"/>
</svg>
