<svg width="53" height="52" viewBox="0 0 53 52" fill="none" xmlns="http://www.w3.org/2000/svg">
<path d="M13.4205 41.1854H6.41235V48.1936" stroke="#E73843" stroke-width="1.4717" stroke-miterlimit="10" stroke-linecap="round"/>
<path d="M48.594 16.0334C50.0366 19.1958 50.7913 22.5977 50.7972 25.9996C50.8104 32.2909 48.3502 38.5865 43.5379 43.3988C38.7987 48.138 32.5395 50.4668 26.2687 50.5281C19.4168 50.5952 14.4002 48.503 9.91643 44.6894C9.12217 44.0148 6.41235 41.1839 6.41235 41.1839" stroke="#E73843" stroke-width="1.4717" stroke-miterlimit="10" stroke-linecap="round"/>
<path d="M3.94396 35.9679C2.50146 32.8055 1.74662 29.4036 1.74077 26.0017C1.72764 19.7104 4.18779 13.4148 9.00003 8.60257C13.7393 3.86332 19.9999 1.53457 26.2692 1.47325C33.1212 1.40609 38.1378 3.4983 42.6216 7.3119C43.4158 7.98643 46.1257 10.8175 46.1257 10.8175" stroke="#E73843" stroke-width="1.4717" stroke-miterlimit="10" stroke-linecap="round"/>
<path d="M39.1177 10.8187H46.1258V3.81055" stroke="#E73843" stroke-width="1.4717" stroke-miterlimit="10" stroke-linecap="round"/>
<path d="M20.406 30.8872C20.406 32.8304 22.1989 34.7971 24.3583 34.7971H28.2245C30.3838 34.7971 32.1344 32.8304 32.1344 30.8872V30.2959C32.1344 28.7818 31.0788 27.4371 29.4829 26.9582L23.0895 25.0442C21.4937 24.5653 20.406 23.2205 20.406 21.7065V21.1152C20.406 19.1719 22.1565 17.2052 24.3159 17.2052H28.2259C30.3853 17.2052 32.1358 19.1719 32.1358 21.1152V23.0702" stroke="#E73843" stroke-width="1.4717" stroke-miterlimit="10"/>
<path d="M26.2695 17.2044V11.3395" stroke="#E73843" stroke-width="1.4717" stroke-miterlimit="10"/>
<path d="M26.2695 34.7986V40.6635" stroke="#E73843" stroke-width="1.4717" stroke-miterlimit="10"/>
</svg>
