<svg width="53" height="52" viewBox="0 0 53 52" fill="none" xmlns="http://www.w3.org/2000/svg">
<g clip-path="url(#clip0_23_19157)">
<path d="M49.3938 16.944H12.6861C11.4575 16.944 10.4614 17.9039 10.4614 19.0881V41.6014C10.4614 42.7856 11.4575 43.7455 12.6861 43.7455H49.3938C50.6225 43.7455 51.6185 42.7856 51.6185 41.6014V19.0881C51.6185 17.9039 50.6225 16.944 49.3938 16.944Z" stroke="#E73843" stroke-width="1.2381" stroke-linecap="round" stroke-linejoin="round"/>
<path d="M8.18765 39.3753L6.83292 39.5112C5.61905 39.6333 4.53637 38.7442 4.41484 37.5235L2.10587 14.338C1.98434 13.1187 2.87092 12.0312 4.08479 11.9092L40.3614 8.26523C41.5754 8.14317 42.658 9.0323 42.7795 10.253L43.2518 14.9941" stroke="#E73843" stroke-width="1.2381" stroke-linecap="round" stroke-linejoin="round"/>
<path d="M25.7844 27.4856L23.0425 21.13H24.6314L27.0283 26.7592H26.0931L28.5264 21.13H29.9882L27.2371 27.4856H25.7844ZM30.5188 27.4856V21.13H31.9897V27.4856H30.5188ZM33.4979 27.4856V21.13H36.249C36.818 21.13 37.3083 21.2239 37.7199 21.4115C38.1315 21.5931 38.4493 21.8564 38.6732 22.2014C38.8972 22.5464 39.0091 22.958 39.0091 23.4362C39.0091 23.9083 38.8972 24.3169 38.6732 24.6619C38.4493 25.0069 38.1315 25.2732 37.7199 25.4609C37.3083 25.6424 36.818 25.7332 36.249 25.7332H34.3151L34.9688 25.0704V27.4856H33.4979ZM34.9688 25.2339L34.3151 24.5348H36.1673C36.6212 24.5348 36.9602 24.4379 37.1842 24.2442C37.4082 24.0505 37.5201 23.7812 37.5201 23.4362C37.5201 23.0851 37.4082 22.8127 37.1842 22.619C36.9602 22.4253 36.6212 22.3285 36.1673 22.3285H34.3151L34.9688 21.6294V25.2339Z" fill="#E73843"/>
<path d="M24.7674 36.1369L25.1153 37.9682L22.6027 36.8093L20.0907 37.9682L20.5793 35.3968L18.5381 33.3769L21.3519 33.1111L22.6027 30.5397L23.3828 32.1437" stroke="#E73843" stroke-width="0.990476" stroke-linecap="round" stroke-linejoin="round"/>
<path d="M37.7518 36.1369L37.4473 37.9682L39.6451 36.8093L41.8437 37.9682L41.4163 35.3968L43.2023 33.3769L40.7396 33.1111L39.6451 30.5397L38.9626 32.1437" stroke="#E73843" stroke-width="0.990476" stroke-linecap="round" stroke-linejoin="round"/>
<path d="M31.281 29.7151L33.1779 33.4297L37.4472 33.8133L34.3502 36.7305L35.0916 40.4452L31.281 38.7712L27.4695 40.4452L28.211 36.7305L25.1147 33.8133L29.3834 33.4297L31.281 29.7151Z" stroke="#E73843" stroke-width="0.990476" stroke-linejoin="round"/>
</g>
<defs>
<clipPath id="clip0_23_19157">
<rect width="52" height="52" fill="white" transform="translate(0.856445)"/>
</clipPath>
</defs>
</svg>
