<svg xmlns:cc="http://web.resource.org/cc/" xmlns:dc="http://purl.org/dc/elements/1.1/" xmlns:inkscape="http://www.inkscape.org/namespaces/inkscape" xmlns:rdf="http://www.w3.org/1999/02/22-rdf-syntax-ns#" xmlns:sodipodi="http://sodipodi.sourceforge.net/DTD/sodipodi-0.dtd" xmlns:svg="http://www.w3.org/2000/svg" xmlns="http://www.w3.org/2000/svg" xmlns:xlink="http://www.w3.org/1999/xlink" id="svg2" inkscape:output_extension="org.inkscape.output.svg.inkscape" inkscape:version="0.45.1" sodipodi:docbase="C:\Users\Simon\Pictures" sodipodi:docname="Eurosport.svg" sodipodi:version="0.32" x="0px" y="0px" viewBox="0 0 4461.1 2790.5" style="enable-background:new 0 0 4461.1 2790.5;" xml:space="preserve"><style type="text/css">	.st0{fill:#1E59AE;}	.st1{fill:#F7F7FC;}	.st2{fill:#EE114B;}	.st3{fill:#FFFFFF;}</style><g>	<path id="path26034" class="st0" d="M214.8,1016h1950.4l-215,764.8H0L214.8,1016z"></path>	<path id="path26038" class="st1" d="M2155.9,1016h2305.2l-214.8,764.8H1941.1L2155.9,1016z"></path>	<path class="st0" d="M982.8,1907c0,0,0,0,0.2,0l0,0v146.9h179.6l0,0c0,0.2,0,0.2,0,0.2L983,2136.6v147.1c0,0.2,0,0.2-0.2,0.2  l-125-89.8l-195.4,89.6l0,0c-0.2,0,0-0.2,0-0.2l121.5-142.7l-121.5-86.7c-0.2,0-0.2,0-0.2-0.2c0,0,0,0,0.2,0h195.4L982.8,1907   M1310.5,2278.2c0,0,0,0,0.2,0v0.2v146.7h179.6l0,0c0,0.2,0,0.2,0,0.2l-179.6,82.5v147.1c0,0.2-0.2,0.2-0.2,0.2l-125-89.8  l-195.4,89.6c0,0.2,0,0-0.2,0l0.2-0.2l121.5-142.7l-121.5-86.7c-0.2,0-0.2-0.2-0.2-0.2s0,0,0.2,0h195.4L1310.5,2278.2   M1895.6,2413.6c0,0,0,0,0.2,0v0.2v146.7h179.6l0,0l0,0c0,0.2,0,0.2,0,0.2l-179.6,82.5v147.1c0,0.2-0.2,0.2-0.2,0.2l-125-89.8  l-195.4,89.8c0,0,0,0-0.2-0.2l0.2-0.2l121.5-142.7l-121.5-86.7c-0.2,0-0.2,0-0.2-0.2c0,0,0,0,0.2,0h195.4L1895.6,2413.6   M2566.1,2270.1h0.2v0.2V2417h179.6l0,0l0,0v0.2l-179.6,82.5v147.1c0,0.2,0,0.2-0.2,0.2l-125-89.8l-195.4,89.6c0,0.2,0,0,0,0v-0.2  l121.5-142.7l-121.5-86.7l-0.2-0.2h0.2h195.4L2566.1,2270.1 M3216.3,1907h0.2l0,0v146.9h179.6l0,0c0,0.2,0,0.2,0,0.2l-179.6,82.5  v147.1c0,0.2,0,0.2-0.2,0.2l-125-89.8l-195.4,89.6c0,0,0,0-0.2,0l0.2-0.2l121.5-142.7l-121.5-86.7c-0.2,0-0.2,0-0.2-0.2  c0,0,0,0,0.2,0h195.4L3216.3,1907 M1521.2,494.3c0,0,0,0,0.2,0l0,0v146.9H1701l0,0v0.2l-179.6,82.5v147.1c0,0.2-0.2,0.2-0.2,0.2  l-125-89.8l-195.4,89.6l0,0c-0.2,0,0-0.2,0-0.2L1322.3,728l-121.5-86.5c-0.2,0-0.2-0.2-0.2-0.2s0,0,0.2,0h195.4L1521.2,494.3   M2149.6,148.6c0,0,0,0,0.2,0v0.2v146.7h179.6l0,0l0,0v0.2l-179.6,82.5v147.1c0,0.2-0.2,0.2-0.2,0.2l-125-89.8l-195.4,89.6  c0,0,0,0-0.2,0l0.2-0.2l121.5-142.9l-121.5-86.5c-0.2,0-0.2-0.2-0.2-0.2s0,0,0.2,0h195.4L2149.6,148.6 M2804.9,0c0,0,0,0,0.2,0v0.2  v146.7h179.6l0,0l0,0c0,0.2,0,0.2,0,0.2l-179.6,82.5v147.1c0,0.2-0.2,0.2-0.2,0.2l-125-89.8l-195.4,89.6c0,0.2-0.2,0-0.2,0  s0-0.2,0.2-0.2l121.5-142.7l-121.7-86.7c0,0,0,0,0-0.2c0,0,0,0,0.2,0h195.4L2804.9,0 M3376.4,149.4c0,0,0,0,0.2,0v0.2v146.7h179.6  l0,0l0,0v0.2L3376.5,379v147.1c0,0.2,0,0.2-0.2,0.2l-125-89.8L3056,526.1l0,0c-0.2,0,0-0.2,0-0.2L3177.5,383L3056,296.5  c-0.2,0-0.2-0.2-0.2-0.2s0,0,0.2,0h195.4L3376.4,149.4 M3748.3,493.6c0,0,0,0,0.2,0l0,0v146.9h179.4h0.2v0.2l-179.6,82.5v147.1  c0,0.2-0.2,0.2-0.2,0.2l-125-89.8l-195.4,89.6l0,0c-0.2,0,0-0.2,0-0.2l121.5-142.9l-121.5-86.5c-0.2,0-0.2-0.2-0.2-0.2s0,0,0.2,0  h195.4L3748.3,493.6"></path>	<path class="st2" d="M3758.7,1684l-33.3-238.3c66.3-26.5,98.7-83.7,119.2-156.3c28.7-101.2,17.5-172.3-116.7-172.3h-70h-108.5  L3389.1,1685h108.5l63.1-223.3h54l28.1,222.3H3758.7z M3622.2,1212.6h75c60.4,0,58.5,35.2,46.7,76.7  c-11.7,41.5-29.8,76.9-90.2,76.9h-75L3622.2,1212.6 M2815.8,1116.7h-70h-108.5l-160.4,567.7h108.5l63.1-223.3h70  c134.2,0,185.6-71,214-172.1C2961.1,1187.7,2950,1116.7,2815.8,1116.7 M2741.7,1365.7h-75.2l43.5-153.7h75  c60.4,0,58.5,35.4,46.7,76.9C2820,1330.5,2801.9,1365.7,2741.7,1365.7 M2412.6,1264.8c-3.1-53.5-22.5-67.3-60.2-67.3  c-38.3,0-63.7,14.6-74.6,53.1c-24,85.6,207.9,118.5,157.9,296c-27.5,97.3-107.3,144-221,144c-87.9,0-145-39.2-142.5-150.6  l113.1-22.7c-6.7,68.3,28.1,83.7,60.2,83.7c37.5,0,71.2-16.2,83.1-58.7c30.4-106.7-203.1-134.8-158.3-293.5  c27.5-97.3,97.7-141,209.8-141c96.3,0,141.5,48.5,137.7,128.7L2412.6,1264.8 M2947.2,1518.6c-39.6,139.8,25,172.3,130,172.3  s187.9-32.5,227.3-172.3l67.3-237.9c39.4-139.8-25-172.3-130-172.3c-105,0-187.9,32.5-227.3,172.3L2947.2,1518.6z M3124.1,1275.3  c17.7-62.7,47.5-71.2,90.6-71.2s68.1,8.5,50.4,71.2l-70.2,248.5c-17.9,62.9-47.5,71.3-90.8,71.3c-43.1,0-68.1-8.5-50.4-71.3  L3124.1,1275.3 M4325.4,1116.7l-27.1,95.8h-126.2L4039,1683.6h-108.1l133.1-471.1h-126.2l27.1-95.8H4325.4z"></path>	<path class="st3" d="M1539.7,1518.6c-39.4,139.8,25,172.3,130,172.3s187.9-32.5,227.3-172.3l67.3-237.9  c39.4-139.8-25-172.3-130-172.3c-105,0-187.9,32.5-227.3,172.3L1539.7,1518.6z M1716.7,1275.3c17.7-62.7,47.5-71.2,90.6-71.2  c43.1,0,68.3,8.5,50.4,71.2l-70.2,248.5c-17.7,62.9-47.5,71.3-90.6,71.3c-43.3,0-68.3-8.5-50.4-71.3L1716.7,1275.3 M153.2,1684  l160.2-566.9h296.2l-26.9,96H394.6l-36.9,130.2h143.5L474,1439H330.5l-42.1,149.2h196l-27.1,95.8H153.2z M817.7,1116.7  l-114.6,405.4c-15.2,54,2.7,73.5,55.2,73.5s82.3-19.4,97.7-73.5l114.6-405.4h108.1l-117.3,415c-35.2,124.8-118.8,159.6-230,159.6  c-111.3,0-174.4-34.8-139-159.6l117.3-415H817.7 M1405.4,1684l-33.3-238.3c66.3-26.5,98.7-83.7,119.2-156.3  c28.7-101.2,17.5-172.3-116.7-172.3h-70h-108.5L1035.8,1685h108.5l63.1-223.3h54l28.1,222.3H1405.4z M1268.9,1212.6h75  c60.4,0,58.5,35.2,46.7,76.7c-11.7,41.5-29.8,76.9-90.2,76.9h-75L1268.9,1212.6"></path></g></svg>